<!--?xml version="1.0" standalone="no"?-->
              <svg id="sw-js-blob-svg" viewBox="0 0 100 100" xmlns="http://www.w3.org/2000/svg" version="1.1">
                    <defs> 
                        <linearGradient id="sw-gradient" x1="0" x2="1" y1="1" y2="0">
                            <stop id="stop1" stop-color="rgba(0, 87, 146, 1)" offset="0%"></stop>
                            <stop id="stop2" stop-color="rgba(83, 205, 226, 1)" offset="100%"></stop>
                        </linearGradient>
                    </defs>
                <path fill="url(#sw-gradient)" d="M20.1,-30.7C27.1,-30.8,34.4,-27.5,34,-21.8C33.5,-16.1,25.2,-8,23.1,-1.2C21.1,5.7,25.4,11.4,25.8,17C26.2,22.5,22.6,27.8,17.7,32.2C12.7,36.7,6.4,40.3,0.2,39.9C-6,39.5,-11.9,35.2,-15.4,30C-18.9,24.7,-20,18.4,-22.6,13.3C-25.1,8.1,-29.3,4.1,-29.2,0C-29.1,-4,-24.9,-8,-22.3,-13C-19.6,-18.1,-18.6,-24.2,-15.1,-26.2C-11.7,-28.2,-5.8,-25.9,0.4,-26.5C6.6,-27.2,13.1,-30.6,20.1,-30.7Z" width="100%" height="100%" transform="translate(50 50)" stroke-width="0" style="transition: all 0.3s ease 0s;" stroke="url(#sw-gradient)"></path>
              </svg>